<?xml version="1.0" encoding="UTF-8" standalone="no"?>
<!DOCTYPE svg PUBLIC "-//W3C//DTD SVG 1.1//EN"
 "http://www.w3.org/Graphics/SVG/1.1/DTD/svg11.dtd">
<!-- Generated by graphviz version 2.43.0 (0)
 -->
<!-- Title: ShopAI_ER Pages: 1 -->
<svg width="1216pt" height="1649pt"
 viewBox="0.00 0.00 1215.60 1649.10" xmlns="http://www.w3.org/2000/svg" xmlns:xlink="http://www.w3.org/1999/xlink">
<g id="graph0" class="graph" transform="scale(1 1) rotate(0) translate(28.8 1620.3)">
<title>ShopAI_ER</title>
<polygon fill="#f8fafc" stroke="transparent" points="-28.8,28.8 -28.8,-1620.3 1186.8,-1620.3 1186.8,28.8 -28.8,28.8"/>
<text text-anchor="start" x="345" y="-1565.2" font-family="Helvetica,sans-Serif" font-weight="bold" font-size="26.00" fill="#1e293b">ShopAI — Database ER Diagram</text>
<text text-anchor="start" x="359.5" y="-1541.6" font-family="Helvetica,sans-Serif" font-size="13.00" fill="#64748b">AI Powered E&#45;Commerce Platform · MongoDB / Mongoose Schema</text>
<!-- User -->
<g id="node1" class="node">
<title>User</title>
<path fill="#ffffff" stroke="transparent" d="M20,-670C20,-670 172,-670 172,-670 178,-670 184,-676 184,-682 184,-682 184,-902 184,-902 184,-908 178,-914 172,-914 172,-914 20,-914 20,-914 14,-914 8,-908 8,-902 8,-902 8,-682 8,-682 8,-676 14,-670 20,-670"/>
<path fill="#4338ca" stroke="transparent" d="M17.67,-887C17.67,-887 174.33,-887 174.33,-887 178.67,-887 183,-891.33 183,-895.67 183,-895.67 183,-904.33 183,-904.33 183,-908.67 178.67,-913 174.33,-913 174.33,-913 17.67,-913 17.67,-913 13.33,-913 9,-908.67 9,-904.33 9,-904.33 9,-895.67 9,-895.67 9,-891.33 13.33,-887 17.67,-887"/>
<text text-anchor="start" x="66" y="-897.6" font-family="Helvetica,sans-Serif" font-weight="bold" font-size="13.00" fill="white">👤 &#160;User</text>
<text text-anchor="start" x="15" y="-872.2" font-family="Helvetica,sans-Serif" font-size="11.00" fill="#b45309">🔑 _id</text>
<text text-anchor="start" x="15" y="-848.2" font-family="Helvetica,sans-Serif" font-size="11.00">name</text>
<text text-anchor="start" x="15" y="-825.2" font-family="Helvetica,sans-Serif" font-size="11.00">email </text>
<text text-anchor="start" x="49" y="-825.2" font-family="Helvetica,sans-Serif" font-size="11.00" fill="#94a3b8">(unique)</text>
<text text-anchor="start" x="15" y="-801.2" font-family="Helvetica,sans-Serif" font-size="11.00">password </text>
<text text-anchor="start" x="72" y="-801.2" font-family="Helvetica,sans-Serif" font-size="11.00" fill="#94a3b8">(hashed)</text>
<text text-anchor="start" x="15" y="-777.2" font-family="Helvetica,sans-Serif" font-size="11.00">role </text>
<text text-anchor="start" x="40" y="-777.2" font-family="Helvetica,sans-Serif" font-size="11.00" fill="#94a3b8">[user/admin]</text>
<text text-anchor="start" x="15" y="-752.2" font-family="Helvetica,sans-Serif" font-size="11.00">addresses []</text>
<text text-anchor="start" x="15" y="-728.2" font-family="Helvetica,sans-Serif" font-size="11.00" fill="#2563eb">🔗 wishlist [Product]</text>
<text text-anchor="start" x="15" y="-704.2" font-family="Helvetica,sans-Serif" font-size="11.00" fill="#2563eb">🔗 browsingHistory [Product]</text>
<text text-anchor="start" x="15" y="-680.2" font-family="Helvetica,sans-Serif" font-size="11.00">resetPasswordToken</text>
<path fill="none" stroke="#4338ca" d="M20,-670C20,-670 172,-670 172,-670 178,-670 184,-676 184,-682 184,-682 184,-902 184,-902 184,-908 178,-914 172,-914 172,-914 20,-914 20,-914 14,-914 8,-908 8,-902 8,-902 8,-682 8,-682 8,-676 14,-670 20,-670"/>
</g>
<!-- Product -->
<g id="node2" class="node">
<title>Product</title>
<path fill="#ffffff" stroke="transparent" d="M737,-812C737,-812 841,-812 841,-812 847,-812 853,-818 853,-824 853,-824 853,-1068 853,-1068 853,-1074 847,-1080 841,-1080 841,-1080 737,-1080 737,-1080 731,-1080 725,-1074 725,-1068 725,-1068 725,-824 725,-824 725,-818 731,-812 737,-812"/>
<path fill="#047857" stroke="transparent" d="M734.67,-1053C734.67,-1053 843.33,-1053 843.33,-1053 847.67,-1053 852,-1057.33 852,-1061.67 852,-1061.67 852,-1070.33 852,-1070.33 852,-1074.67 847.67,-1079 843.33,-1079 843.33,-1079 734.67,-1079 734.67,-1079 730.33,-1079 726,-1074.67 726,-1070.33 726,-1070.33 726,-1061.67 726,-1061.67 726,-1057.33 730.33,-1053 734.67,-1053"/>
<text text-anchor="start" x="747.5" y="-1063.6" font-family="Helvetica,sans-Serif" font-weight="bold" font-size="13.00" fill="white">📦 &#160;Product</text>
<text text-anchor="start" x="732" y="-1038.2" font-family="Helvetica,sans-Serif" font-size="11.00" fill="#b45309">🔑 _id</text>
<text text-anchor="start" x="732" y="-1014.2" font-family="Helvetica,sans-Serif" font-size="11.00">name</text>
<text text-anchor="start" x="732" y="-990.2" font-family="Helvetica,sans-Serif" font-size="11.00">description</text>
<text text-anchor="start" x="732" y="-966.2" font-family="Helvetica,sans-Serif" font-size="11.00">price / originalPrice</text>
<text text-anchor="start" x="732" y="-942.2" font-family="Helvetica,sans-Serif" font-size="11.00">category</text>
<text text-anchor="start" x="732" y="-918.2" font-family="Helvetica,sans-Serif" font-size="11.00">brand</text>
<text text-anchor="start" x="732" y="-894.2" font-family="Helvetica,sans-Serif" font-size="11.00">tags []</text>
<text text-anchor="start" x="732" y="-870.2" font-family="Helvetica,sans-Serif" font-size="11.00">stock</text>
<text text-anchor="start" x="732" y="-846.2" font-family="Helvetica,sans-Serif" font-size="11.00">rating / numReviews</text>
<text text-anchor="start" x="732" y="-822.2" font-family="Helvetica,sans-Serif" font-size="11.00">views</text>
<path fill="none" stroke="#047857" d="M737,-812C737,-812 841,-812 841,-812 847,-812 853,-818 853,-824 853,-824 853,-1068 853,-1068 853,-1074 847,-1080 841,-1080 841,-1080 737,-1080 737,-1080 731,-1080 725,-1074 725,-1068 725,-1068 725,-824 725,-824 725,-818 731,-812 737,-812"/>
</g>
<!-- User&#45;&gt;Product -->
<g id="edge4" class="edge">
<title>User&#45;&gt;Product</title>
<path fill="none" stroke="#94a3b8" stroke-width="1.3" stroke-dasharray="5,2" d="M159.67,-918.17C179.04,-944.59 203.07,-968.98 232,-984 389.35,-1065.71 606.32,-1010.97 716.94,-973.26"/>
<text text-anchor="middle" x="411" y="-1029" font-family="Helvetica,sans-Serif" font-size="10.00" fill="#475569"> * : * (wishlist) </text>
</g>
<!-- User&#45;&gt;Product -->
<g id="edge5" class="edge">
<title>User&#45;&gt;Product</title>
<path fill="none" stroke="#94a3b8" stroke-width="1.3" stroke-dasharray="5,2" d="M192.21,-833.61C225.78,-847.05 264.11,-861.04 300,-871 445.17,-911.27 621.01,-931.6 717,-940.38"/>
<text text-anchor="middle" x="411" y="-919" font-family="Helvetica,sans-Serif" font-size="10.00" fill="#475569"> * : * (browsingHistory) </text>
</g>
<!-- Cart -->
<g id="node5" class="node">
<title>Cart</title>
<path fill="#ffffff" stroke="transparent" d="M354,-742C354,-742 468,-742 468,-742 474,-742 480,-748 480,-754 480,-754 480,-830 480,-830 480,-836 474,-842 468,-842 468,-842 354,-842 354,-842 348,-842 342,-836 342,-830 342,-830 342,-754 342,-754 342,-748 348,-742 354,-742"/>
<path fill="#1d4ed8" stroke="transparent" d="M351.67,-815C351.67,-815 470.33,-815 470.33,-815 474.67,-815 479,-819.33 479,-823.67 479,-823.67 479,-832.33 479,-832.33 479,-836.67 474.67,-841 470.33,-841 470.33,-841 351.67,-841 351.67,-841 347.33,-841 343,-836.67 343,-832.33 343,-832.33 343,-823.67 343,-823.67 343,-819.33 347.33,-815 351.67,-815"/>
<text text-anchor="start" x="382" y="-825.6" font-family="Helvetica,sans-Serif" font-weight="bold" font-size="13.00" fill="white">🛒 &#160;Cart</text>
<text text-anchor="start" x="349" y="-800.2" font-family="Helvetica,sans-Serif" font-size="11.00" fill="#b45309">🔑 _id</text>
<text text-anchor="start" x="349" y="-776.2" font-family="Helvetica,sans-Serif" font-size="11.00" fill="#2563eb">🔗 user (User, unique)</text>
<text text-anchor="start" x="349" y="-752.2" font-family="Helvetica,sans-Serif" font-size="11.00">items [ product, qty ]</text>
<path fill="none" stroke="#1d4ed8" d="M354,-742C354,-742 468,-742 468,-742 474,-742 480,-748 480,-754 480,-754 480,-830 480,-830 480,-836 474,-842 468,-842 468,-842 354,-842 354,-842 348,-842 342,-836 342,-830 342,-830 342,-754 342,-754 342,-748 348,-742 354,-742"/>
</g>
<!-- User&#45;&gt;Cart -->
<g id="edge1" class="edge">
<title>User&#45;&gt;Cart</title>
<path fill="none" stroke="#334155" stroke-width="1.8" d="M192.19,-792C237.6,-792 291.19,-792 333.86,-792"/>
<text text-anchor="middle" x="246" y="-795" font-family="Helvetica,sans-Serif" font-size="10.00" fill="#475569"> 1 : 1 </text>
</g>
<!-- Order -->
<g id="node6" class="node">
<title>Order</title>
<path fill="#ffffff" stroke="transparent" d="M320,-392C320,-392 502,-392 502,-392 508,-392 514,-398 514,-404 514,-404 514,-672 514,-672 514,-678 508,-684 502,-684 502,-684 320,-684 320,-684 314,-684 308,-678 308,-672 308,-672 308,-404 308,-404 308,-398 314,-392 320,-392"/>
<path fill="#1d4ed8" stroke="transparent" d="M317.67,-657C317.67,-657 504.33,-657 504.33,-657 508.67,-657 513,-661.33 513,-665.67 513,-665.67 513,-674.33 513,-674.33 513,-678.67 508.67,-683 504.33,-683 504.33,-683 317.67,-683 317.67,-683 313.33,-683 309,-678.67 309,-674.33 309,-674.33 309,-665.67 309,-665.67 309,-661.33 313.33,-657 317.67,-657"/>
<text text-anchor="start" x="376.5" y="-667.6" font-family="Helvetica,sans-Serif" font-weight="bold" font-size="13.00" fill="white">🧾 &#160;Order</text>
<text text-anchor="start" x="315" y="-642.2" font-family="Helvetica,sans-Serif" font-size="11.00" fill="#b45309">🔑 _id</text>
<text text-anchor="start" x="315" y="-618.2" font-family="Helvetica,sans-Serif" font-size="11.00" fill="#2563eb">🔗 user (User)</text>
<text text-anchor="start" x="315" y="-594.2" font-family="Helvetica,sans-Serif" font-size="11.00">items [ product, name, price, qty ]</text>
<text text-anchor="start" x="315" y="-570.2" font-family="Helvetica,sans-Serif" font-size="11.00">itemsSubtotal / shippingCost</text>
<text text-anchor="start" x="315" y="-546.2" font-family="Helvetica,sans-Serif" font-size="11.00">couponCode / discountAmount</text>
<text text-anchor="start" x="315" y="-522.2" font-family="Helvetica,sans-Serif" font-size="11.00">totalAmount</text>
<text text-anchor="start" x="315" y="-498.2" font-family="Helvetica,sans-Serif" font-size="11.00">shippingAddress</text>
<text text-anchor="start" x="315" y="-474.2" font-family="Helvetica,sans-Serif" font-size="11.00">status / statusHistory []</text>
<text text-anchor="start" x="315" y="-450.2" font-family="Helvetica,sans-Serif" font-size="11.00">paymentMethod / isPaid</text>
<text text-anchor="start" x="315" y="-426.2" font-family="Helvetica,sans-Serif" font-size="11.00">razorpayOrderId / PaymentId</text>
<text text-anchor="start" x="315" y="-402.2" font-family="Helvetica,sans-Serif" font-size="11.00">returnStatus / refundStatus</text>
<path fill="none" stroke="#1d4ed8" d="M320,-392C320,-392 502,-392 502,-392 508,-392 514,-398 514,-404 514,-404 514,-672 514,-672 514,-678 508,-684 502,-684 502,-684 320,-684 320,-684 314,-684 308,-678 308,-672 308,-672 308,-404 308,-404 308,-398 314,-392 320,-392"/>
</g>
<!-- User&#45;&gt;Order -->
<g id="edge2" class="edge">
<title>User&#45;&gt;Order</title>
<path fill="none" stroke="#334155" stroke-width="1.8" d="M192.19,-714.76C226.18,-687.17 264.76,-655.87 299.9,-627.35"/>
<text text-anchor="middle" x="246" y="-683" font-family="Helvetica,sans-Serif" font-size="10.00" fill="#475569"> 1 : * </text>
</g>
<!-- Review -->
<g id="node7" class="node">
<title>Review</title>
<path fill="#ffffff" stroke="transparent" d="M358.5,-1122C358.5,-1122 463.5,-1122 463.5,-1122 469.5,-1122 475.5,-1128 475.5,-1134 475.5,-1134 475.5,-1282 475.5,-1282 475.5,-1288 469.5,-1294 463.5,-1294 463.5,-1294 358.5,-1294 358.5,-1294 352.5,-1294 346.5,-1288 346.5,-1282 346.5,-1282 346.5,-1134 346.5,-1134 346.5,-1128 352.5,-1122 358.5,-1122"/>
<path fill="#be185d" stroke="transparent" d="M356.67,-1267C356.67,-1267 466.33,-1267 466.33,-1267 470.67,-1267 475,-1271.33 475,-1275.67 475,-1275.67 475,-1284.33 475,-1284.33 475,-1288.67 470.67,-1293 466.33,-1293 466.33,-1293 356.67,-1293 356.67,-1293 352.33,-1293 348,-1288.67 348,-1284.33 348,-1284.33 348,-1275.67 348,-1275.67 348,-1271.33 352.33,-1267 356.67,-1267"/>
<text text-anchor="start" x="372" y="-1277.6" font-family="Helvetica,sans-Serif" font-weight="bold" font-size="13.00" fill="white">⭐ &#160;Review</text>
<text text-anchor="start" x="354" y="-1252.2" font-family="Helvetica,sans-Serif" font-size="11.00" fill="#b45309">🔑 _id</text>
<text text-anchor="start" x="354" y="-1228.2" font-family="Helvetica,sans-Serif" font-size="11.00" fill="#2563eb">🔗 product (Product)</text>
<text text-anchor="start" x="354" y="-1204.2" font-family="Helvetica,sans-Serif" font-size="11.00" fill="#2563eb">🔗 user (User)</text>
<text text-anchor="start" x="354" y="-1180.2" font-family="Helvetica,sans-Serif" font-size="11.00">name</text>
<text text-anchor="start" x="354" y="-1156.2" font-family="Helvetica,sans-Serif" font-size="11.00">rating (1&#45;5)</text>
<text text-anchor="start" x="354" y="-1132.2" font-family="Helvetica,sans-Serif" font-size="11.00">comment</text>
<path fill="none" stroke="#be185d" d="M358.5,-1122C358.5,-1122 463.5,-1122 463.5,-1122 469.5,-1122 475.5,-1128 475.5,-1134 475.5,-1134 475.5,-1282 475.5,-1282 475.5,-1288 469.5,-1294 463.5,-1294 463.5,-1294 358.5,-1294 358.5,-1294 352.5,-1294 346.5,-1288 346.5,-1282 346.5,-1282 346.5,-1134 346.5,-1134 346.5,-1128 352.5,-1122 358.5,-1122"/>
</g>
<!-- User&#45;&gt;Review -->
<g id="edge3" class="edge">
<title>User&#45;&gt;Review</title>
<path fill="none" stroke="#334155" stroke-width="1.8" d="M134.38,-918.25C156.12,-976.61 188.06,-1044.11 232,-1095 261.06,-1128.66 302.63,-1155.83 338.29,-1175.08"/>
<text text-anchor="middle" x="246" y="-1122" font-family="Helvetica,sans-Serif" font-size="10.00" fill="#475569"> 1 : * </text>
</g>
<!-- SearchLog -->
<g id="node10" class="node">
<title>SearchLog</title>
<path fill="#ffffff" stroke="transparent" d="M350,-186C350,-186 472,-186 472,-186 478,-186 484,-192 484,-198 484,-198 484,-322 484,-322 484,-328 478,-334 472,-334 472,-334 350,-334 350,-334 344,-334 338,-328 338,-322 338,-322 338,-198 338,-198 338,-192 344,-186 350,-186"/>
<path fill="#a21caf" stroke="transparent" d="M347.67,-307C347.67,-307 474.33,-307 474.33,-307 478.67,-307 483,-311.33 483,-315.67 483,-315.67 483,-324.33 483,-324.33 483,-328.67 478.67,-333 474.33,-333 474.33,-333 347.67,-333 347.67,-333 343.33,-333 339,-328.67 339,-324.33 339,-324.33 339,-315.67 339,-315.67 339,-311.33 343.33,-307 347.67,-307"/>
<text text-anchor="start" x="359.5" y="-317.6" font-family="Helvetica,sans-Serif" font-weight="bold" font-size="13.00" fill="white">🔍 &#160;SearchLog</text>
<text text-anchor="start" x="345" y="-292.2" font-family="Helvetica,sans-Serif" font-size="11.00" fill="#b45309">🔑 _id</text>
<text text-anchor="start" x="345" y="-268.2" font-family="Helvetica,sans-Serif" font-size="11.00">query</text>
<text text-anchor="start" x="345" y="-244.2" font-family="Helvetica,sans-Serif" font-size="11.00">resultsCount</text>
<text text-anchor="start" x="345" y="-220.2" font-family="Helvetica,sans-Serif" font-size="11.00">noExactMatch</text>
<text text-anchor="start" x="345" y="-196.2" font-family="Helvetica,sans-Serif" font-size="11.00" fill="#2563eb">🔗 user (User, optional)</text>
<path fill="none" stroke="#a21caf" d="M350,-186C350,-186 472,-186 472,-186 478,-186 484,-192 484,-198 484,-198 484,-322 484,-322 484,-328 478,-334 472,-334 472,-334 350,-334 350,-334 344,-334 338,-328 338,-322 338,-322 338,-198 338,-198 338,-192 344,-186 350,-186"/>
</g>
<!-- User&#45;&gt;SearchLog -->
<g id="edge6" class="edge">
<title>User&#45;&gt;SearchLog</title>
<path fill="none" stroke="#94a3b8" stroke-width="1.3" stroke-dasharray="1,5" d="M142.02,-665.94C177.3,-576.62 231.79,-456.54 300,-363 308.79,-350.95 319.11,-339.16 329.86,-328.11"/>
<text text-anchor="middle" x="246" y="-464" font-family="Helvetica,sans-Serif" font-size="10.00" fill="#475569"> 1 : * </text>
</g>
<!-- ChatLog -->
<g id="node11" class="node">
<title>ChatLog</title>
<path fill="#ffffff" stroke="transparent" d="M350,-4C350,-4 472,-4 472,-4 478,-4 484,-10 484,-16 484,-16 484,-116 484,-116 484,-122 478,-128 472,-128 472,-128 350,-128 350,-128 344,-128 338,-122 338,-116 338,-116 338,-16 338,-16 338,-10 344,-4 350,-4"/>
<path fill="#a21caf" stroke="transparent" d="M347.67,-101C347.67,-101 474.33,-101 474.33,-101 478.67,-101 483,-105.33 483,-109.67 483,-109.67 483,-118.33 483,-118.33 483,-122.67 478.67,-127 474.33,-127 474.33,-127 347.67,-127 347.67,-127 343.33,-127 339,-122.67 339,-118.33 339,-118.33 339,-109.67 339,-109.67 339,-105.33 343.33,-101 347.67,-101"/>
<text text-anchor="start" x="368" y="-111.6" font-family="Helvetica,sans-Serif" font-weight="bold" font-size="13.00" fill="white">💬 &#160;ChatLog</text>
<text text-anchor="start" x="345" y="-86.2" font-family="Helvetica,sans-Serif" font-size="11.00" fill="#b45309">🔑 _id</text>
<text text-anchor="start" x="345" y="-62.2" font-family="Helvetica,sans-Serif" font-size="11.00">message</text>
<text text-anchor="start" x="345" y="-38.2" font-family="Helvetica,sans-Serif" font-size="11.00">reply</text>
<text text-anchor="start" x="345" y="-14.2" font-family="Helvetica,sans-Serif" font-size="11.00" fill="#2563eb">🔗 user (User, optional)</text>
<path fill="none" stroke="#a21caf" d="M350,-4C350,-4 472,-4 472,-4 478,-4 484,-10 484,-16 484,-16 484,-116 484,-116 484,-122 478,-128 472,-128 472,-128 350,-128 350,-128 344,-128 338,-122 338,-116 338,-116 338,-16 338,-16 338,-10 344,-4 350,-4"/>
</g>
<!-- User&#45;&gt;ChatLog -->
<g id="edge7" class="edge">
<title>User&#45;&gt;ChatLog</title>
<path fill="none" stroke="#94a3b8" stroke-width="1.3" stroke-dasharray="1,5" d="M115.62,-665.84C140.27,-530.62 193.68,-314.24 300,-157 308.33,-144.68 318.8,-133.14 329.94,-122.68"/>
<text text-anchor="middle" x="246" y="-270" font-family="Helvetica,sans-Serif" font-size="10.00" fill="#475569"> 1 : * </text>
</g>
<!-- Category -->
<g id="node3" class="node">
<title>Category</title>
<path fill="#ffffff" stroke="transparent" d="M1021.5,-799C1021.5,-799 1104.5,-799 1104.5,-799 1110.5,-799 1116.5,-805 1116.5,-811 1116.5,-811 1116.5,-911 1116.5,-911 1116.5,-917 1110.5,-923 1104.5,-923 1104.5,-923 1021.5,-923 1021.5,-923 1015.5,-923 1009.5,-917 1009.5,-911 1009.5,-911 1009.5,-811 1009.5,-811 1009.5,-805 1015.5,-799 1021.5,-799"/>
<path fill="#b45309" stroke="transparent" d="M1019.67,-896C1019.67,-896 1107.33,-896 1107.33,-896 1111.67,-896 1116,-900.33 1116,-904.67 1116,-904.67 1116,-913.33 1116,-913.33 1116,-917.67 1111.67,-922 1107.33,-922 1107.33,-922 1019.67,-922 1019.67,-922 1015.33,-922 1011,-917.67 1011,-913.33 1011,-913.33 1011,-904.67 1011,-904.67 1011,-900.33 1015.33,-896 1019.67,-896"/>
<text text-anchor="start" x="1017" y="-906.6" font-family="Helvetica,sans-Serif" font-weight="bold" font-size="13.00" fill="white">🏷️ &#160;Category</text>
<text text-anchor="start" x="1017" y="-881.2" font-family="Helvetica,sans-Serif" font-size="11.00" fill="#b45309">🔑 _id</text>
<text text-anchor="start" x="1017" y="-858.2" font-family="Helvetica,sans-Serif" font-size="11.00">name </text>
<text text-anchor="start" x="1052" y="-858.2" font-family="Helvetica,sans-Serif" font-size="11.00" fill="#94a3b8">(unique)</text>
<text text-anchor="start" x="1017" y="-833.2" font-family="Helvetica,sans-Serif" font-size="11.00">icon</text>
<text text-anchor="start" x="1017" y="-809.2" font-family="Helvetica,sans-Serif" font-size="11.00">description</text>
<path fill="none" stroke="#b45309" d="M1021.5,-799C1021.5,-799 1104.5,-799 1104.5,-799 1110.5,-799 1116.5,-805 1116.5,-811 1116.5,-811 1116.5,-911 1116.5,-911 1116.5,-917 1110.5,-923 1104.5,-923 1104.5,-923 1021.5,-923 1021.5,-923 1015.5,-923 1009.5,-917 1009.5,-911 1009.5,-911 1009.5,-811 1009.5,-811 1009.5,-805 1015.5,-799 1021.5,-799"/>
</g>
<!-- Product&#45;&gt;Category -->
<g id="edge12" class="edge">
<title>Product&#45;&gt;Category</title>
<path fill="none" stroke="#334155" stroke-width="1.8" d="M861.11,-923.78C904.71,-910.15 959.93,-892.9 1001.44,-879.92"/>
<text text-anchor="middle" x="914.5" y="-914" font-family="Helvetica,sans-Serif" font-size="10.00" fill="#475569"> * : 1 </text>
</g>
<!-- Brand -->
<g id="node4" class="node">
<title>Brand</title>
<path fill="#ffffff" stroke="transparent" d="M1027.5,-981C1027.5,-981 1098.5,-981 1098.5,-981 1104.5,-981 1110.5,-987 1110.5,-993 1110.5,-993 1110.5,-1069 1110.5,-1069 1110.5,-1075 1104.5,-1081 1098.5,-1081 1098.5,-1081 1027.5,-1081 1027.5,-1081 1021.5,-1081 1015.5,-1075 1015.5,-1069 1015.5,-1069 1015.5,-993 1015.5,-993 1015.5,-987 1021.5,-981 1027.5,-981"/>
<path fill="#b45309" stroke="transparent" d="M1025.67,-1054C1025.67,-1054 1101.33,-1054 1101.33,-1054 1105.67,-1054 1110,-1058.33 1110,-1062.67 1110,-1062.67 1110,-1071.33 1110,-1071.33 1110,-1075.67 1105.67,-1080 1101.33,-1080 1101.33,-1080 1025.67,-1080 1025.67,-1080 1021.33,-1080 1017,-1075.67 1017,-1071.33 1017,-1071.33 1017,-1062.67 1017,-1062.67 1017,-1058.33 1021.33,-1054 1025.67,-1054"/>
<text text-anchor="start" x="1028.5" y="-1064.6" font-family="Helvetica,sans-Serif" font-weight="bold" font-size="13.00" fill="white">🏢 &#160;Brand</text>
<text text-anchor="start" x="1023" y="-1039.2" font-family="Helvetica,sans-Serif" font-size="11.00" fill="#b45309">🔑 _id</text>
<text text-anchor="start" x="1023" y="-1016.2" font-family="Helvetica,sans-Serif" font-size="11.00">name </text>
<text text-anchor="start" x="1058" y="-1016.2" font-family="Helvetica,sans-Serif" font-size="11.00" fill="#94a3b8">(unique)</text>
<text text-anchor="start" x="1023" y="-991.2" font-family="Helvetica,sans-Serif" font-size="11.00">logo</text>
<path fill="none" stroke="#b45309" d="M1027.5,-981C1027.5,-981 1098.5,-981 1098.5,-981 1104.5,-981 1110.5,-987 1110.5,-993 1110.5,-993 1110.5,-1069 1110.5,-1069 1110.5,-1075 1104.5,-1081 1098.5,-1081 1098.5,-1081 1027.5,-1081 1027.5,-1081 1021.5,-1081 1015.5,-1075 1015.5,-1069 1015.5,-1069 1015.5,-993 1015.5,-993 1015.5,-987 1021.5,-981 1027.5,-981"/>
</g>
<!-- Product&#45;&gt;Brand -->
<g id="edge13" class="edge">
<title>Product&#45;&gt;Brand</title>
<path fill="none" stroke="#334155" stroke-width="1.8" d="M861.11,-968.22C906.76,-982.49 965.14,-1000.73 1007.19,-1013.87"/>
<text text-anchor="middle" x="914.5" y="-991" font-family="Helvetica,sans-Serif" font-size="10.00" fill="#475569"> * : 1 </text>
</g>
<!-- Cart&#45;&gt;Product -->
<g id="edge8" class="edge">
<title>Cart&#45;&gt;Product</title>
<path fill="none" stroke="#94a3b8" stroke-width="1.3" stroke-dasharray="5,2" d="M488.28,-821.33C541.4,-841.97 613.78,-870.53 677,-897 689.92,-902.41 703.62,-908.32 716.82,-914.09"/>
<text text-anchor="middle" x="619.5" y="-900" font-family="Helvetica,sans-Serif" font-size="10.00" fill="#475569"> * : * (items) </text>
</g>
<!-- Order&#45;&gt;Product -->
<g id="edge9" class="edge">
<title>Order&#45;&gt;Product</title>
<path fill="none" stroke="#94a3b8" stroke-width="1.3" stroke-dasharray="5,2" d="M522.02,-657.38C584.87,-725.58 661.85,-809.12 716.8,-868.74"/>
<text text-anchor="middle" x="619.5" y="-828" font-family="Helvetica,sans-Serif" font-size="10.00" fill="#475569"> * : * (items, snapshot) </text>
</g>
<!-- Coupon -->
<g id="node8" class="node">
<title>Coupon</title>
<path fill="#ffffff" stroke="transparent" d="M988,-440C988,-440 1138,-440 1138,-440 1144,-440 1150,-446 1150,-452 1150,-452 1150,-624 1150,-624 1150,-630 1144,-636 1138,-636 1138,-636 988,-636 988,-636 982,-636 976,-630 976,-624 976,-624 976,-452 976,-452 976,-446 982,-440 988,-440"/>
<path fill="#b45309" stroke="transparent" d="M985.67,-609C985.67,-609 1140.33,-609 1140.33,-609 1144.67,-609 1149,-613.33 1149,-617.67 1149,-617.67 1149,-626.33 1149,-626.33 1149,-630.67 1144.67,-635 1140.33,-635 1140.33,-635 985.67,-635 985.67,-635 981.33,-635 977,-630.67 977,-626.33 977,-626.33 977,-617.67 977,-617.67 977,-613.33 981.33,-609 985.67,-609"/>
<text text-anchor="start" x="1022.5" y="-619.6" font-family="Helvetica,sans-Serif" font-weight="bold" font-size="13.00" fill="white">🎟️ &#160;Coupon</text>
<text text-anchor="start" x="983" y="-594.2" font-family="Helvetica,sans-Serif" font-size="11.00" fill="#b45309">🔑 _id</text>
<text text-anchor="start" x="983" y="-571.2" font-family="Helvetica,sans-Serif" font-size="11.00">code </text>
<text text-anchor="start" x="1014" y="-571.2" font-family="Helvetica,sans-Serif" font-size="11.00" fill="#94a3b8">(unique)</text>
<text text-anchor="start" x="983" y="-546.2" font-family="Helvetica,sans-Serif" font-size="11.00">discountType / discountValue</text>
<text text-anchor="start" x="983" y="-522.2" font-family="Helvetica,sans-Serif" font-size="11.00">minOrderValue</text>
<text text-anchor="start" x="983" y="-498.2" font-family="Helvetica,sans-Serif" font-size="11.00">maxDiscountAmount</text>
<text text-anchor="start" x="983" y="-474.2" font-family="Helvetica,sans-Serif" font-size="11.00">active / expiresAt</text>
<text text-anchor="start" x="983" y="-450.2" font-family="Helvetica,sans-Serif" font-size="11.00">usageLimit / usedCount</text>
<path fill="none" stroke="#b45309" d="M988,-440C988,-440 1138,-440 1138,-440 1144,-440 1150,-446 1150,-452 1150,-452 1150,-624 1150,-624 1150,-630 1144,-636 1138,-636 1138,-636 988,-636 988,-636 982,-636 976,-630 976,-624 976,-624 976,-452 976,-452 976,-446 982,-440 988,-440"/>
</g>
<!-- Order&#45;&gt;Coupon -->
<g id="edge10" class="edge">
<title>Order&#45;&gt;Coupon</title>
<path fill="none" stroke="#94a3b8" stroke-width="1.3" stroke-dasharray="1,5" d="M522.26,-538C647.5,-538 849.72,-538 967.85,-538"/>
<text text-anchor="middle" x="789" y="-541" font-family="Helvetica,sans-Serif" font-size="10.00" fill="#475569"> * : 0..1 </text>
</g>
<!-- Review&#45;&gt;Product -->
<g id="edge11" class="edge">
<title>Review&#45;&gt;Product</title>
<path fill="none" stroke="#334155" stroke-width="1.8" d="M483.5,-1188.81C540.16,-1171.08 619.13,-1140.55 677,-1095 691.32,-1083.73 704.73,-1070.17 716.93,-1055.89"/>
<text text-anchor="middle" x="619.5" y="-1160" font-family="Helvetica,sans-Serif" font-size="10.00" fill="#475569"> * : 1 </text>
</g>
<!-- Settings -->
<g id="node9" class="node">
<title>Settings</title>
<path fill="#ffffff" stroke="transparent" d="M995.5,-1139C995.5,-1139 1130.5,-1139 1130.5,-1139 1136.5,-1139 1142.5,-1145 1142.5,-1151 1142.5,-1151 1142.5,-1323 1142.5,-1323 1142.5,-1329 1136.5,-1335 1130.5,-1335 1130.5,-1335 995.5,-1335 995.5,-1335 989.5,-1335 983.5,-1329 983.5,-1323 983.5,-1323 983.5,-1151 983.5,-1151 983.5,-1145 989.5,-1139 995.5,-1139"/>
<path fill="#6d28d9" stroke="transparent" d="M993.67,-1308C993.67,-1308 1133.33,-1308 1133.33,-1308 1137.67,-1308 1142,-1312.33 1142,-1316.67 1142,-1316.67 1142,-1325.33 1142,-1325.33 1142,-1329.67 1137.67,-1334 1133.33,-1334 1133.33,-1334 993.67,-1334 993.67,-1334 989.33,-1334 985,-1329.67 985,-1325.33 985,-1325.33 985,-1316.67 985,-1316.67 985,-1312.33 989.33,-1308 993.67,-1308"/>
<text text-anchor="start" x="1020.5" y="-1318.6" font-family="Helvetica,sans-Serif" font-weight="bold" font-size="13.00" fill="white">⚙️ &#160;Settings</text>
<text text-anchor="start" x="991" y="-1293.2" font-family="Helvetica,sans-Serif" font-size="11.00" fill="#b45309">🔑 _id</text>
<text text-anchor="start" x="991" y="-1269.2" font-family="Helvetica,sans-Serif" font-size="11.00">storeName / supportEmail</text>
<text text-anchor="start" x="991" y="-1245.2" font-family="Helvetica,sans-Serif" font-size="11.00">freeDeliveryAbove</text>
<text text-anchor="start" x="991" y="-1221.2" font-family="Helvetica,sans-Serif" font-size="11.00">returnPolicyDays</text>
<text text-anchor="start" x="991" y="-1197.2" font-family="Helvetica,sans-Serif" font-size="11.00">saleEnabled / saleEndsAt</text>
<text text-anchor="start" x="991" y="-1173.2" font-family="Helvetica,sans-Serif" font-size="11.00">payment {cod/upi/card}</text>
<text text-anchor="start" x="991" y="-1149.2" font-family="Helvetica,sans-Serif" font-size="11.00">shippingZones []</text>
<path fill="none" stroke="#6d28d9" d="M995.5,-1139C995.5,-1139 1130.5,-1139 1130.5,-1139 1136.5,-1139 1142.5,-1145 1142.5,-1151 1142.5,-1151 1142.5,-1323 1142.5,-1323 1142.5,-1329 1136.5,-1335 1130.5,-1335 1130.5,-1335 995.5,-1335 995.5,-1335 989.5,-1335 983.5,-1329 983.5,-1323 983.5,-1323 983.5,-1151 983.5,-1151 983.5,-1145 989.5,-1139 995.5,-1139"/>
</g>
<!-- Legend -->
<g id="node12" class="node">
<title>Legend</title>
<path fill="#ffffff" stroke="transparent" d="M1011,-1393.5C1011,-1393.5 1115,-1393.5 1115,-1393.5 1121,-1393.5 1127,-1399.5 1127,-1405.5 1127,-1405.5 1127,-1516.5 1127,-1516.5 1127,-1522.5 1121,-1528.5 1115,-1528.5 1115,-1528.5 1011,-1528.5 1011,-1528.5 1005,-1528.5 999,-1522.5 999,-1516.5 999,-1516.5 999,-1405.5 999,-1405.5 999,-1399.5 1005,-1393.5 1011,-1393.5"/>
<path fill="#e2e8f0" stroke="transparent" d="M1007.67,-1504C1007.67,-1504 1118.33,-1504 1118.33,-1504 1122.17,-1504 1126,-1507.83 1126,-1511.67 1126,-1511.67 1126,-1519.33 1126,-1519.33 1126,-1523.17 1122.17,-1527 1118.33,-1527 1118.33,-1527 1007.67,-1527 1007.67,-1527 1003.83,-1527 1000,-1523.17 1000,-1519.33 1000,-1519.33 1000,-1511.67 1000,-1511.67 1000,-1507.83 1003.83,-1504 1007.67,-1504"/>
<text text-anchor="start" x="1038.5" y="-1513.4" font-family="Helvetica,sans-Serif" font-weight="bold" font-size="12.00">Legend</text>
<text text-anchor="start" x="1005" y="-1490.2" font-family="Helvetica,sans-Serif" font-size="11.00" fill="#334155">━━━ &#160;direct reference</text>
<text text-anchor="start" x="1005" y="-1468.2" font-family="Helvetica,sans-Serif" font-size="11.00" fill="#334155">┅┅┅ &#160;many&#45;to&#45;many</text>
<text text-anchor="start" x="1005" y="-1446.2" font-family="Helvetica,sans-Serif" font-size="11.00" fill="#334155">···· &#160;optional link</text>
<text text-anchor="start" x="1005" y="-1424.2" font-family="Helvetica,sans-Serif" font-size="11.00" fill="#b45309">🔑 &#160;primary key</text>
<text text-anchor="start" x="1005" y="-1402.2" font-family="Helvetica,sans-Serif" font-size="11.00" fill="#2563eb">🔗 &#160;foreign key ref</text>
<path fill="none" stroke="#cbd5e1" d="M1011,-1393.5C1011,-1393.5 1115,-1393.5 1115,-1393.5 1121,-1393.5 1127,-1399.5 1127,-1405.5 1127,-1405.5 1127,-1516.5 1127,-1516.5 1127,-1522.5 1121,-1528.5 1115,-1528.5 1115,-1528.5 1011,-1528.5 1011,-1528.5 1005,-1528.5 999,-1522.5 999,-1516.5 999,-1516.5 999,-1405.5 999,-1405.5 999,-1399.5 1005,-1393.5 1011,-1393.5"/>
</g>
</g>
</svg>
